# xmcd CD database file
#
# Track frame offsets:
#	150
#	16004
#	29982
#	52820
#	67886
#	91103
#	108977
#	124194
#	138630
#	150459
#	174955
#	192728
#	210130
#	225840
#
# Disc length: 3248 seconds
#
# Revision: 0
# Processed by: cddbd v1.5.1PL0 Copyright (c) Steve Scherf et al.
# Submitted via: CDex 1.50
#
DISCID=a90cae0e
DTITLE=Livia Barbosa - Canta Jazz
DYEAR=2000
DGENRE=Jazz
TTITLE0=How High the Moon
TTITLE1=How long has this been going on?
TTITLE2=Tenderly
TTITLE3=Triste
TTITLE4=Days of wine and roses
TTITLE5='Round Midnight
TTITLE6=Chovendo na roseira
TTITLE7=Daahoud
TTITLE8=My one and only love
TTITLE9=Body and Soul
TTITLE10=Inutil Paisagem
TTITLE11=Taking a chance in Love
TTITLE12=Them there eyes
TTITLE13=Bill Bailey won't you please come home
EXTD=YEAR: 2000
EXTT0=
EXTT1=
EXTT2=
EXTT3=
EXTT4=
EXTT5=
EXTT6=
EXTT7=
EXTT8=
EXTT9=
EXTT10=
EXTT11=
EXTT12=
EXTT13=
PLAYORDER=
